<svg fill="#000000" xmlns="http://www.w3.org/2000/svg"  viewBox="0 0 50 50" width="50px" height="50px"><path d="M 25 5 C 21.715706 5 19.145863 5.6421567 17.328125 6.9414062 C 17.083398 7.1163277 16.858085 7.3065695 16.644531 7.5058594 C 15.803546 7.1435217 14.881118 7 14 7 L 3 7 A 1.0001 1.0001 0 0 0 2.2402344 8.6503906 C 2.2402344 8.6503906 7.0753619 14.465401 13.546875 15.742188 C 13.433239 16.062245 13.356975 16.40014 13.289062 16.751953 C 13.10503 17.705322 13.051641 18.733012 13.027344 19.695312 C 11.630149 21.168444 10.466903 23.209768 9.5546875 25.046875 C 8.5209211 24.763231 7.3997939 25.309651 7.0175781 26.330078 L 6.1601562 28.621094 C 5.7556797 29.700952 6.3150021 30.931584 7.3945312 31.335938 L 8.0429688 31.578125 C 7.8730705 32.013297 7.7318202 32.507394 7.6835938 33.044922 C 7.6370407 33.563796 7.6852638 34.139899 7.9511719 34.689453 C 8.2170801 35.239007 8.7082448 35.720036 9.3457031 36.019531 C 10.094133 36.371022 10.85993 36.396172 11.521484 36.226562 L 10.263672 41.589844 L 10.255859 41.640625 C 10.047134 43.239436 11.022897 44.783035 12.574219 45.255859 C 14.994559 45.993604 20.251832 47 25 47 C 29.748168 47 35.005201 45.994233 37.425781 45.257812 C 38.977103 44.784988 39.952866 43.239436 39.744141 41.640625 L 39.738281 41.591797 L 38.478516 36.228516 C 39.139937 36.397959 39.906088 36.370918 40.654297 36.019531 C 41.291755 35.720036 41.78292 35.239007 42.048828 34.689453 C 42.314736 34.139899 42.362959 33.563796 42.316406 33.044922 C 42.268242 32.508114 42.126624 32.014832 41.957031 31.580078 L 42.605469 31.335938 C 43.684998 30.931583 44.24432 29.700952 43.839844 28.621094 L 42.982422 26.330078 L 42.980469 26.328125 C 42.597286 25.309456 41.478097 24.76347 40.445312 25.046875 C 39.533098 23.209768 38.369851 21.168444 36.972656 19.695312 C 36.948358 18.733012 36.894969 17.705322 36.710938 16.751953 C 36.643025 16.40014 36.566761 16.062245 36.453125 15.742188 C 42.924638 14.465401 47.759766 8.6503906 47.759766 8.6503906 A 1.0001 1.0001 0 0 0 47 7 L 36 7 C 35.118882 7 34.196454 7.1435217 33.355469 7.5058594 C 33.141915 7.3065695 32.916602 7.1163277 32.671875 6.9414062 C 30.854137 5.6421567 28.284294 5 25 5 z M 25 7 C 28.018706 7 30.175754 7.6148589 31.509766 8.5683594 C 32.843777 9.5218598 33.455078 10.768891 33.455078 12.5 C 33.455078 13.322026 33.247043 14.042415 32.890625 14.693359 C 31.18734 15.659175 29.790346 17 25 17 C 20.211832 17 18.813559 15.661032 17.111328 14.695312 C 16.753671 14.043113 16.544922 13.322785 16.544922 12.5 C 16.544922 10.768891 17.156223 9.5218598 18.490234 8.5683594 C 19.824246 7.6148589 21.981294 7 25 7 z M 5.6191406 9 L 14 9 C 14.466984 9 14.928517 9.0693033 15.353516 9.1875 C 14.824722 10.175972 14.544922 11.299567 14.544922 12.5 C 14.544922 12.990769 14.61307 13.459819 14.712891 13.916016 C 10.57979 13.424569 7.3899507 10.693775 5.6191406 9 z M 36 9 L 44.380859 9 C 42.61005 10.693775 39.42021 13.424569 35.287109 13.916016 C 35.38667 13.460063 35.455078 12.990218 35.455078 12.5 C 35.455078 11.299567 35.175278 10.175972 34.646484 9.1875 C 35.071483 9.0693033 35.533016 9 36 9 z M 20.972656 11 C 19.786377 11.030374 18.585719 11.614156 18.066406 12.652344 C 18.066406 13.839344 21.627 16.212844 24 13.839844 C 24 11.837344 22.497873 10.960948 20.972656 11 z M 29.027344 11 C 27.502127 10.960948 26 11.837344 26 13.839844 C 28.373 16.212844 31.933594 13.839344 31.933594 12.652344 C 31.414281 11.614156 30.213623 11.030374 29.027344 11 z M 24 15 C 24 15.552 24.448 16 25 16 C 25.552 16 26 15.552 26 15 L 24 15 z M 15.576172 16.166016 C 16.967476 16.801333 19.062021 19 25 19 C 25.614439 19 26.026144 18.893155 26.5625 18.849609 C 26.48171 19.420505 26.48124 19.902537 26.064453 20.886719 C 25.754144 21.619463 25.325521 22.29739 24.796875 22.740234 C 24.355756 23.109757 23.820213 23.297701 23.132812 23.324219 C 22.121952 23.272849 21.38535 23.291119 19.666016 23.001953 C 18.338967 22.778768 17.025262 22.44646 16.142578 22.033203 C 15.701236 21.826575 15.376224 21.598964 15.203125 21.414062 C 15.030026 21.229162 15 21.134722 15 21 C 15 19.850737 15.03744 18.242136 15.251953 17.130859 C 15.348283 16.631845 15.492161 16.310565 15.576172 16.166016 z M 34.423828 16.166016 C 34.507838 16.310565 34.65172 16.631845 34.748047 17.130859 C 34.962562 18.242136 35 19.850737 35 21 C 35 21.134722 34.96997 21.229162 34.796875 21.414062 C 34.623776 21.598963 34.298764 21.826575 33.857422 22.033203 C 32.974738 22.44646 31.661033 22.778768 30.333984 23.001953 C 28.549772 23.302025 27.727296 23.288167 26.736328 23.335938 C 27.163733 22.786303 27.656158 22.258519 27.90625 21.667969 C 28.547579 20.153576 28.592567 19.138925 28.640625 18.648438 C 31.889706 18.000688 33.367977 16.648154 34.423828 16.166016 z M 13.435547 22.390625 C 13.527784 22.530928 13.631032 22.662515 13.742188 22.78125 C 13.974452 23.029351 14.242814 23.235459 14.529297 23.419922 L 13.78125 26.609375 L 11.451172 25.736328 C 12.037271 24.58889 12.7172 23.410835 13.435547 22.390625 z M 36.564453 22.390625 C 37.2828 23.410835 37.962729 24.58889 38.548828 25.736328 L 36.220703 26.609375 L 35.472656 23.417969 C 35.758287 23.233847 36.026143 23.028716 36.257812 22.78125 C 36.368968 22.662515 36.472217 22.530928 36.564453 22.390625 z M 16.384766 24.269531 C 17.311846 24.580624 18.323818 24.804718 19.333984 24.974609 C 20.509923 25.172381 20.70165 25.113779 21.667969 25.191406 L 21.667969 44.839844 C 18.170603 44.529407 14.758934 43.831666 13.158203 43.34375 C 12.540254 43.155406 12.16138 42.558061 12.242188 41.908203 L 16.384766 24.269531 z M 33.617188 24.269531 L 37.759766 41.914062 C 37.837482 42.561563 37.45977 43.155995 36.84375 43.34375 C 35.241677 43.831153 31.829526 44.529249 28.332031 44.839844 L 28.332031 25.191406 C 29.29835 25.113776 29.490077 25.172386 30.666016 24.974609 C 31.676818 24.804611 32.689637 24.580935 33.617188 24.269531 z M 23.667969 25.376953 C 23.9367 25.386938 24.982422 25.5 24.982422 25.5 L 25 25.5 L 25.017578 25.5 C 25.017578 25.5 26.0633 25.386938 26.332031 25.376953 L 26.332031 44.964844 C 25.883991 44.98295 25.436119 45 25 45 C 24.563881 45 24.116004 44.982939 23.667969 44.964844 L 23.667969 25.376953 z M 8.9453125 26.962891 C 8.9692334 26.952146 8.9991321 26.954032 9.0332031 26.966797 L 13.320312 28.572266 L 12.705078 31.189453 L 8.0976562 29.462891 C 8.0291852 29.437241 8.0076801 29.390411 8.0332031 29.322266 L 8.890625 27.03125 C 8.9034485 26.997015 8.9213916 26.973636 8.9453125 26.962891 z M 41.054688 26.962891 C 41.078609 26.973637 41.096551 26.997025 41.109375 27.03125 L 41.966797 29.322266 C 41.992317 29.390406 41.970794 29.437244 41.902344 29.462891 L 37.296875 31.189453 L 36.681641 28.572266 L 40.966797 26.966797 C 41.000867 26.954037 41.030766 26.952144 41.054688 26.962891 z M 9.9296875 32.285156 L 12.205078 33.136719 C 11.991151 33.500091 11.700848 33.903395 11.392578 34.125 C 11.031512 34.384558 10.799043 34.492523 10.195312 34.208984 C 9.9047713 34.072484 9.8157793 33.954306 9.75 33.818359 C 9.6842207 33.682413 9.650131 33.488736 9.6738281 33.224609 C 9.6991527 32.942344 9.8022345 32.609291 9.9296875 32.285156 z M 40.072266 32.285156 C 40.199566 32.609042 40.300869 32.942582 40.326172 33.224609 C 40.349872 33.488736 40.31578 33.682413 40.25 33.818359 C 40.18422 33.954306 40.095229 34.07248 39.804688 34.208984 C 39.200958 34.492519 38.968488 34.384554 38.607422 34.125 C 38.299793 33.903856 38.010748 33.501478 37.796875 33.138672 L 40.072266 32.285156 z"/></svg>