<svg fill="#000000" xmlns="http://www.w3.org/2000/svg"  viewBox="0 0 50 50" width="50px" height="50px"><path d="M 18.564453 2 C 11.637085 2 6 7.6370848 6 14.564453 L 6 16.28125 C 5.4072606 16.630903 5 17.271181 5 18 L 5 27 L 5 27.199219 C 3.7629511 28.236305 3 29.756905 3 31.482422 C 3 33.08439 3.6387086 34.542241 4.6816406 35.560547 L 7.3652344 38.363281 C 6.8092415 39.310415 6.7714574 40.535591 7.421875 41.519531 L 8.65625 43.386719 C 8.65815 43.389819 8.6602094 43.391431 8.6621094 43.394531 C 9.7622906 45.171151 10.948365 46.360853 12.345703 47.0625 C 13.745453 47.765358 15.283011 47.955078 17.021484 47.955078 L 19.722656 47.955078 C 21.517487 47.95509 23 46.486795 23 44.693359 A 1.0001 1.0001 0 0 0 22.984375 44.515625 A 1.0001 1.0001 0 0 0 23 44.332031 L 23 44.693359 L 23 46 A 1.0001 1.0001 0 1 0 25 46 A 1.0001 1.0001 0 1 0 27 46 L 27 44.712891 C 27.011004 46.497203 28.487256 47.955078 30.275391 47.955078 L 32.976562 47.955078 C 34.715036 47.955078 36.252594 47.765358 37.652344 47.0625 C 39.049682 46.360853 40.235756 45.171151 41.335938 43.394531 L 42.576172 41.519531 C 43.225282 40.536091 43.187529 39.31152 42.632812 38.365234 L 45.318359 35.558594 C 46.361294 34.540286 47 33.082437 47 31.480469 C 47 29.754951 46.237049 28.234352 45 27.197266 L 45 25 L 45 18 C 45 17.271181 44.592739 16.630903 44 16.28125 L 44 14.564453 C 44 7.6370848 38.362915 2 31.435547 2 L 24 2 L 18.564453 2 z M 18.564453 4 L 24 4 L 31.435547 4 C 36.395687 4 40.530081 7.4002678 41.673828 12 L 8.3261719 12 C 9.4699194 7.4002678 13.604313 4 18.564453 4 z M 8.0292969 14 L 41.970703 14 C 41.98061 14.188111 42 14.373818 42 14.564453 L 42 16 L 25 16 L 8 16 L 8 14.564453 C 8 14.373818 8.0193898 14.188111 8.0292969 14 z M 7 18 L 8 18 L 25 18 L 43 18 L 43 27 L 43 27.523438 A 1.0001 1.0001 0 0 0 43.484375 28.380859 C 44.421066 28.943898 45 30.057768 45 31.480469 C 45 32.550501 44.572943 33.493212 43.921875 34.128906 A 1.0001 1.0001 0 0 0 43.898438 34.152344 L 41.148438 37.025391 L 29.396484 27.634766 C 28.176789 26.660374 26.663374 26.007176 25.033203 26 L 25.03125 26 L 25 26 L 24.96875 26 L 24.966797 26 C 23.33759 26.0084 21.821054 26.659628 20.601562 27.634766 L 8.8515625 37.025391 L 6.1015625 34.152344 A 1.0001 1.0001 0 0 0 6.078125 34.128906 C 5.427057 33.493212 5 32.552454 5 31.482422 C 5 30.059721 5.5789343 28.945851 6.515625 28.382812 A 1.0001 1.0001 0 0 0 7 27.525391 L 7 25 L 7 18 z M 9.9394531 20 C 9.1944531 20 8.72775 20.806031 9.09375 21.457031 L 11.796875 26.503906 C 12.057875 26.967906 12.640422 27.135859 13.107422 26.880859 L 21.470703 21.833984 C 22.356703 21.350984 22.013859 20 21.005859 20 L 9.9394531 20 z M 28.966797 20 C 27.958797 20 27.617906 21.350984 28.503906 21.833984 L 36.865234 26.880859 C 37.331234 27.135859 37.914781 26.967906 38.175781 26.503906 L 40.880859 21.457031 C 41.246859 20.806031 40.777203 20 40.033203 20 L 28.966797 20 z M 24.970703 28 L 25 28 L 25.029297 28 C 26.123868 28.0058 27.221202 28.456514 28.148438 29.197266 L 33.431641 33.419922 L 31.667969 32.582031 L 28.244141 30.957031 C 27.230967 30.476387 26.121423 30.226562 24.998047 30.226562 C 23.875355 30.226564 22.768435 30.47513 21.753906 30.957031 L 16.572266 33.416016 L 21.851562 29.197266 C 22.776467 28.457687 23.875796 28.007162 24.970703 28 z M 8.3339844 29.136719 A 1.0001 1.0001 0 0 0 7.6464844 29.439453 L 6.9394531 30.146484 A 1.0001 1.0001 0 1 0 8.3535156 31.560547 L 9.0605469 30.853516 A 1.0001 1.0001 0 0 0 8.3339844 29.136719 z M 41.634766 29.136719 A 1.0001 1.0001 0 0 0 40.939453 30.853516 L 41.646484 31.560547 A 1.0001 1.0001 0 1 0 43.060547 30.146484 L 42.353516 29.439453 A 1.0001 1.0001 0 0 0 41.634766 29.136719 z M 10.333984 31.136719 A 1.0001 1.0001 0 0 0 9.6464844 31.439453 L 8.9394531 32.146484 A 1.0001 1.0001 0 1 0 10.353516 33.560547 L 11.060547 32.853516 A 1.0001 1.0001 0 0 0 10.333984 31.136719 z M 39.634766 31.136719 A 1.0001 1.0001 0 0 0 38.939453 32.853516 L 39.646484 33.560547 A 1.0001 1.0001 0 1 0 41.060547 32.146484 L 40.353516 31.439453 A 1.0001 1.0001 0 0 0 39.634766 31.136719 z M 24.998047 32.226562 C 25.824671 32.226562 26.641879 32.410318 27.386719 32.763672 L 30.810547 34.388672 L 40.503906 38.990234 C 41.06813 39.25815 41.247574 39.903801 40.908203 40.417969 L 39.648438 42.320312 L 39.640625 42.333984 C 38.663407 43.914266 37.758906 44.770749 36.753906 45.275391 C 36.61006 45.34762 36.452519 45.397853 36.300781 45.457031 C 36.7236 44.718418 36.984375 43.871948 36.984375 42.962891 C 36.984375 40.230145 34.795473 37.96875 32.091797 37.96875 L 29.96875 37.96875 C 29.412896 37.96875 28.984375 37.540229 28.984375 36.984375 C 28.984375 35.348229 27.636146 34 26 34 L 23.984375 34 C 22.348229 34 21 35.348229 21 36.984375 C 21 37.540229 20.571479 37.96875 20.015625 37.96875 L 17.892578 37.96875 C 15.18816 37.96875 13 40.230448 13 42.962891 C 13 43.869555 13.258934 44.713938 13.679688 45.451172 C 13.53401 45.393776 13.382537 45.344884 13.244141 45.275391 C 12.239141 44.770749 11.33464 43.914266 10.357422 42.333984 L 10.349609 42.320312 L 9.0898438 40.416016 C 8.7498457 39.901691 8.9287746 39.258447 9.4941406 38.990234 L 9.6796875 38.902344 L 9.6894531 38.916016 L 9.7460938 38.871094 L 22.611328 32.763672 C 23.356799 32.409573 24.170739 32.226562 24.998047 32.226562 z M 23.984375 36 L 26 36 C 26.555854 36 26.984375 36.428521 26.984375 36.984375 C 26.984375 38.620521 28.332604 39.96875 29.96875 39.96875 L 32.091797 39.96875 C 33.68612 39.96875 34.984375 41.283636 34.984375 42.962891 C 34.984375 44.642448 33.687378 45.955078 32.091797 45.955078 L 30.275391 45.955078 C 29.554222 45.955078 28.998047 45.397924 28.998047 44.693359 A 1.0001 1.0001 0 0 0 28.984375 44.521484 A 1.0001 1.0001 0 0 0 29 44.332031 L 29 41.667969 A 1.0001 1.0001 0 1 0 27 41.667969 L 27 40 A 1.0001 1.0001 0 1 0 25 40 A 1.0001 1.0001 0 0 0 23.984375 38.986328 A 1.0001 1.0001 0 0 0 23 40 L 23 41.667969 A 1.0001 1.0001 0 0 0 21.984375 40.652344 A 1.0001 1.0001 0 0 0 21 41.667969 L 21 44.332031 A 1.0001 1.0001 0 0 0 21.015625 44.509766 A 1.0001 1.0001 0 0 0 21 44.693359 C 21 45.397924 20.443825 45.955078 19.722656 45.955078 L 17.892578 45.955078 C 16.298255 45.955078 15 44.642145 15 42.962891 C 15 41.283334 16.296997 39.96875 17.892578 39.96875 L 20.015625 39.96875 C 21.651771 39.96875 23 38.620521 23 36.984375 C 23 36.428521 23.428521 36 23.984375 36 z M 18.052734 41.521484 A 1.5 1.5 0 0 0 18.052734 44.521484 A 1.5 1.5 0 0 0 18.052734 41.521484 z M 31.931641 41.521484 A 1.5 1.5 0 0 0 31.931641 44.521484 A 1.5 1.5 0 0 0 31.931641 41.521484 z M 27 44.332031 A 1.0001 1.0001 0 0 0 27.013672 44.503906 A 1.0001 1.0001 0 0 0 27 44.623047 L 27 44.332031 z"/></svg>