<svg fill="#000000" xmlns="http://www.w3.org/2000/svg"  viewBox="0 0 50 50" width="50px" height="50px"><path d="M 25 2 C 19.488281 2 15 6.488281 15 12 L 15 15 L 11 15 C 10.449219 15 10 15.449219 10 16 L 10 18 L 9 18 L 9 20 L 10 20 L 10 38 C 10 38.109375 10.015625 38.214844 10.050781 38.316406 L 10.921875 40.921875 L 9.105469 44.550781 C 9.035156 44.691406 9 44.84375 9 45 L 9 47 C 9 47.550781 9.449219 48 10 48 L 15 48 C 15.550781 48 16 47.550781 16 47 L 16 38 L 16.464844 38 L 18.167969 40.554688 C 18.351563 40.832031 18.664063 41 19 41 L 31 41 C 31.335938 41 31.648438 40.832031 31.832031 40.554688 L 33.535156 38 L 34 38 L 34 47 C 34 47.550781 34.449219 48 35 48 L 40 48 C 40.550781 48 41 47.550781 41 47 L 41 45 C 41 44.84375 40.964844 44.691406 40.894531 44.550781 L 39.078125 40.921875 L 39.949219 38.316406 C 39.984375 38.214844 40 38.109375 40 38 L 40 20 L 41 20 L 41 18 L 40 18 L 40 16 C 40 15.449219 39.550781 15 39 15 L 35 15 L 35 12 C 35 6.488281 30.511719 2 25 2 Z M 25 4 C 29.429688 4 33 7.570313 33 12 L 33 15 L 28 15 L 28 9 C 28 8.449219 27.550781 8 27 8 L 23 8 C 22.449219 8 22 8.449219 22 9 L 22 11 L 17.066406 11 C 17.558594 7.046875 20.910156 4 25 4 Z M 24 10 L 26 10 L 26 15 L 24 15 Z M 30 12 C 29.449219 12 29 12.449219 29 13 C 29 13.550781 29.449219 14 30 14 C 30.550781 14 31 13.550781 31 13 C 31 12.449219 30.550781 12 30 12 Z M 17 13 L 22 13 L 22 15 L 17 15 Z M 12 17 L 14 17 L 14 40 L 12.71875 40 L 12 37.839844 Z M 16 17 L 34 17 L 34 36 L 33.171875 36 C 33.113281 35.992188 33.058594 35.984375 33 35.984375 L 33 34 L 31 34 L 31 36 L 28 36 L 28 24 C 28 23.449219 27.550781 23 27 23 L 23 23 C 22.449219 23 22 23.449219 22 24 L 22 36 L 17.136719 36 C 17.085938 35.992188 17.039063 35.988281 16.988281 35.988281 C 16.941406 35.988281 16.898438 35.992188 16.851563 36 L 16 36 Z M 36 17 L 38 17 L 38 37.839844 L 37.28125 40 L 36 40 Z M 18 19 L 18 21 L 32 21 L 32 19 Z M 24 25 L 26 25 L 26 36 L 24 36 Z M 18.871094 38 L 31.128906 38 L 30.464844 39 L 19.535156 39 Z M 12.617188 42 L 14 42 L 14 46 L 11 46 L 11 45.234375 Z M 36 42 L 37.382813 42 L 39 45.234375 L 39 46 L 36 46 Z"/></svg>